<svg width="120" height="120" viewBox="0 0 120 120" fill="none" xmlns="http://www.w3.org/2000/svg">
  <path d="M0 0H120V120H0V0Z" fill="#FCA311" />
  <path
    d="M56.9117 93.4616H34.6154V27.6924H57.3614C63.894 27.6924 69.5055 29.0091 74.1961 31.6424C78.9081 34.2543 82.5278 38.0116 85.0551 42.9144C87.5825 47.8171 88.8461 53.6832 88.8461 60.5128C88.8461 67.3637 87.5717 73.2513 85.023 78.1754C82.4956 83.0995 78.8438 86.8783 74.0676 89.5116C69.3128 92.145 63.5941 93.4616 56.9117 93.4616ZM46.5346 83.1531H56.3334C60.9169 83.1531 64.74 82.3181 67.8028 80.6482C70.8656 78.9569 73.168 76.4413 74.7101 73.1014C76.2523 69.7402 77.0233 65.544 77.0233 60.5128C77.0233 55.4816 76.2523 51.3068 74.7101 47.9884C73.168 44.6485 70.887 42.1543 67.867 40.5058C64.8685 38.8359 61.1417 38.0009 56.6868 38.0009H46.5346V83.1531Z"
    fill="white" />
</svg>